<?xml version="1.0" encoding="UTF-8"?>
<!--Generator: Apple Native CoreSVG 175.5-->
<!DOCTYPE svg
PUBLIC "-//W3C//DTD SVG 1.1//EN"
       "http://www.w3.org/Graphics/SVG/1.1/DTD/svg11.dtd">
<svg version="1.1" xmlns="http://www.w3.org/2000/svg" xmlns:xlink="http://www.w3.org/1999/xlink" width="3300" height="2200">
 <!--glyph: "", point size: 100.0, font version: "18.0d10e1", template writer version: "90"-->
 <style>.monochrome-0 {fill:#000000}

.SFSymbolsPreview000000 {fill:#000000;opacity:1.0}
</style>
 <g id="Notes">
  <rect height="2200" id="artboard" style="fill:white;opacity:1" width="3300" x="0" y="0"/>
  <line style="fill:none;stroke:black;opacity:1;stroke-width:0.5;" x1="263" x2="3036" y1="292" y2="292"/>
  <text style="stroke:none;fill:black;font-family:sans-serif;font-size:13;font-weight:bold;" transform="matrix(1 0 0 1 263 322)">Weight/Scale Variations</text>
  <text style="stroke:none;fill:black;font-family:sans-serif;font-size:13;text-anchor:middle;" transform="matrix(1 0 0 1 559.711 322)">Ultralight</text>
  <text style="stroke:none;fill:black;font-family:sans-serif;font-size:13;text-anchor:middle;" transform="matrix(1 0 0 1 856.422 322)">Thin</text>
  <text style="stroke:none;fill:black;font-family:sans-serif;font-size:13;text-anchor:middle;" transform="matrix(1 0 0 1 1153.13 322)">Light</text>
  <text style="stroke:none;fill:black;font-family:sans-serif;font-size:13;text-anchor:middle;" transform="matrix(1 0 0 1 1449.84 322)">Regular</text>
  <text style="stroke:none;fill:black;font-family:sans-serif;font-size:13;text-anchor:middle;" transform="matrix(1 0 0 1 1746.56 322)">Medium</text>
  <text style="stroke:none;fill:black;font-family:sans-serif;font-size:13;text-anchor:middle;" transform="matrix(1 0 0 1 2043.27 322)">Semibold</text>
  <text style="stroke:none;fill:black;font-family:sans-serif;font-size:13;text-anchor:middle;" transform="matrix(1 0 0 1 2339.98 322)">Bold</text>
  <text style="stroke:none;fill:black;font-family:sans-serif;font-size:13;text-anchor:middle;" transform="matrix(1 0 0 1 2636.69 322)">Heavy</text>
  <text style="stroke:none;fill:black;font-family:sans-serif;font-size:13;text-anchor:middle;" transform="matrix(1 0 0 1 2933.4 322)">Black</text>
  <line style="fill:none;stroke:black;opacity:1;stroke-width:0.5;" x1="263" x2="3036" y1="1903" y2="1903"/>
  <g transform="matrix(1 0 0 1 263 1933)">
   <path d="M9.24805 0.830078C13.5547 0.830078 17.1387-2.74414 17.1387-7.05078C17.1387-11.3574 13.5449-14.9316 9.23828-14.9316C4.94141-14.9316 1.36719-11.3574 1.36719-7.05078C1.36719-2.74414 4.95117 0.830078 9.24805 0.830078ZM9.24805-0.654297C5.70312-0.654297 2.87109-3.49609 2.87109-7.05078C2.87109-10.6055 5.69336-13.4473 9.23828-13.4473C12.793-13.4473 15.6445-10.6055 15.6445-7.05078C15.6445-3.49609 12.8027-0.654297 9.24805-0.654297ZM5.6543-7.05078C5.6543-6.62109 5.95703-6.32812 6.40625-6.32812L8.50586-6.32812L8.50586-4.20898C8.50586-3.76953 8.79883-3.4668 9.22852-3.4668C9.67773-3.4668 9.9707-3.76953 9.9707-4.20898L9.9707-6.32812L12.0898-6.32812C12.5293-6.32812 12.832-6.62109 12.832-7.05078C12.832-7.49023 12.5293-7.79297 12.0898-7.79297L9.9707-7.79297L9.9707-9.90234C9.9707-10.3516 9.67773-10.6543 9.22852-10.6543C8.79883-10.6543 8.50586-10.3516 8.50586-9.90234L8.50586-7.79297L6.40625-7.79297C5.95703-7.79297 5.6543-7.49023 5.6543-7.05078Z"/>
  </g>
  <g transform="matrix(1 0 0 1 281.867 1933)">
   <path d="M11.709 2.91016C17.1582 2.91016 21.6699-1.61133 21.6699-7.05078C21.6699-12.5 17.1484-17.0117 11.6992-17.0117C6.25977-17.0117 1.74805-12.5 1.74805-7.05078C1.74805-1.61133 6.26953 2.91016 11.709 2.91016ZM11.709 1.25C7.09961 1.25 3.41797-2.44141 3.41797-7.05078C3.41797-11.6602 7.08984-15.3516 11.6992-15.3516C16.3086-15.3516 20.0098-11.6602 20.0098-7.05078C20.0098-2.44141 16.3184 1.25 11.709 1.25ZM7.17773-7.05078C7.17773-6.57227 7.50977-6.25 8.00781-6.25L10.8789-6.25L10.8789-3.36914C10.8789-2.88086 11.2109-2.53906 11.6895-2.53906C12.1777-2.53906 12.5195-2.87109 12.5195-3.36914L12.5195-6.25L15.4004-6.25C15.8887-6.25 16.2305-6.57227 16.2305-7.05078C16.2305-7.53906 15.8887-7.88086 15.4004-7.88086L12.5195-7.88086L12.5195-10.752C12.5195-11.25 12.1777-11.5918 11.6895-11.5918C11.2109-11.5918 10.8789-11.25 10.8789-10.752L10.8789-7.88086L8.00781-7.88086C7.50977-7.88086 7.17773-7.53906 7.17773-7.05078Z"/>
  </g>
  <g transform="matrix(1 0 0 1 305.646 1933)">
   <path d="M14.9707 5.66406C21.9336 5.66406 27.6953-0.0976562 27.6953-7.05078C27.6953-14.0137 21.9238-19.7754 14.9609-19.7754C8.00781-19.7754 2.25586-14.0137 2.25586-7.05078C2.25586-0.0976562 8.01758 5.66406 14.9707 5.66406ZM14.9707 3.84766C8.93555 3.84766 4.08203-1.01562 4.08203-7.05078C4.08203-13.0957 8.92578-17.9492 14.9609-17.9492C21.0059-17.9492 25.8691-13.0957 25.8691-7.05078C25.8691-1.01562 21.0156 3.84766 14.9707 3.84766ZM9.19922-7.05078C9.19922-6.5332 9.57031-6.17188 10.1172-6.17188L14.0625-6.17188L14.0625-2.2168C14.0625-1.67969 14.4336-1.29883 14.9512-1.29883C15.4883-1.29883 15.8594-1.66992 15.8594-2.2168L15.8594-6.17188L19.8145-6.17188C20.3516-6.17188 20.7324-6.5332 20.7324-7.05078C20.7324-7.59766 20.3613-7.96875 19.8145-7.96875L15.8594-7.96875L15.8594-11.9141C15.8594-12.4609 15.4883-12.8418 14.9512-12.8418C14.4336-12.8418 14.0625-12.4609 14.0625-11.9141L14.0625-7.96875L10.1172-7.96875C9.57031-7.96875 9.19922-7.59766 9.19922-7.05078Z"/>
  </g>
  <text style="stroke:none;fill:black;font-family:sans-serif;font-size:13;font-weight:bold;" transform="matrix(1 0 0 1 263 1953)">Design Variations</text>
  <text style="stroke:none;fill:black;font-family:sans-serif;font-size:13;" transform="matrix(1 0 0 1 263 1971)">Symbols are supported in up to nine weights and three scales.</text>
  <text style="stroke:none;fill:black;font-family:sans-serif;font-size:13;" transform="matrix(1 0 0 1 263 1989)">For optimal layout with text and other symbols, vertically align</text>
  <text style="stroke:none;fill:black;font-family:sans-serif;font-size:13;" transform="matrix(1 0 0 1 263 2007)">symbols with the adjacent text.</text>
  <line style="fill:none;stroke:#00AEEF;stroke-width:0.5;opacity:1.0;" x1="776" x2="776" y1="1919" y2="1933"/>
  <g transform="matrix(1 0 0 1 776 1933)">
   <path d="M3.31055 0.15625C3.82812 0.15625 4.08203-0.0390625 4.26758-0.585938L5.52734-4.0332L11.2891-4.0332L12.5488-0.585938C12.7344-0.0390625 12.9883 0.15625 13.4961 0.15625C14.0137 0.15625 14.3457-0.15625 14.3457-0.644531C14.3457-0.810547 14.3164-0.966797 14.2383-1.17188L9.6582-13.3691C9.43359-13.9648 9.0332-14.2676 8.4082-14.2676C7.80273-14.2676 7.39258-13.9746 7.17773-13.3789L2.59766-1.16211C2.51953-0.957031 2.49023-0.800781 2.49023-0.634766C2.49023-0.146484 2.80273 0.15625 3.31055 0.15625ZM6.00586-5.51758L8.37891-12.0898L8.42773-12.0898L10.8008-5.51758Z"/>
  </g>
  <line style="fill:none;stroke:#00AEEF;stroke-width:0.5;opacity:1.0;" x1="793.197" x2="793.197" y1="1919" y2="1933"/>
  <text style="stroke:none;fill:black;font-family:sans-serif;font-size:13;font-weight:bold;" transform="matrix(1 0 0 1 776 1953)">Margins</text>
  <text style="stroke:none;fill:black;font-family:sans-serif;font-size:13;" transform="matrix(1 0 0 1 776 1971)">Leading and trailing margins on the left and right side of each symbol</text>
  <text style="stroke:none;fill:black;font-family:sans-serif;font-size:13;" transform="matrix(1 0 0 1 776 1989)">can be adjusted by modifying the x-location of the margin guidelines.</text>
  <text style="stroke:none;fill:black;font-family:sans-serif;font-size:13;" transform="matrix(1 0 0 1 776 2007)">Modifications are automatically applied proportionally to all</text>
  <text style="stroke:none;fill:black;font-family:sans-serif;font-size:13;" transform="matrix(1 0 0 1 776 2025)">scales and weights.</text>
  <g transform="matrix(1 0 0 1 1289 1933)">
   <path d="M2.8418 1.86523L4.54102 3.57422C5.40039 4.44336 6.38672 4.38477 7.31445 3.35938L18.0078-8.42773L17.041-9.4043L6.42578 2.27539C6.07422 2.67578 5.74219 2.77344 5.27344 2.30469L4.10156 1.14258C3.63281 0.683594 3.74023 0.341797 4.14062-0.0195312L15.6152-10.8203L14.6387-11.7871L3.04688-0.898438C2.06055 0.0195312 1.98242 0.996094 2.8418 1.86523ZM9.25781-16.3281C8.83789-15.918 8.80859-15.3418 9.04297-14.9512C9.27734-14.5898 9.73633-14.3555 10.3809-14.5215C11.8457-14.8633 13.3691-14.9219 14.7949-13.9844L14.209-12.5293C13.8672-11.6992 14.043-11.1133 14.5801-10.5664L16.875-8.25195C17.3633-7.76367 17.7734-7.74414 18.3398-7.8418L19.4043-8.03711L20.0684-7.36328L20.0293-6.80664C19.9902-6.30859 20.1172-5.92773 20.6055-5.44922L21.3672-4.70703C21.8457-4.22852 22.4609-4.19922 22.9297-4.66797L25.8398-7.58789C26.3086-8.05664 26.2891-8.65234 25.8105-9.13086L25.0391-9.89258C24.5605-10.3711 24.1895-10.5273 23.7109-10.4883L23.1348-10.4395L22.4902-11.0742L22.7344-12.1973C22.8613-12.7637 22.7051-13.2031 22.1191-13.7891L19.9219-15.9766C16.582-19.2969 12.1484-19.2188 9.25781-16.3281ZM10.752-15.957C13.1836-17.7344 16.4746-17.4316 18.7012-15.2051L21.1328-12.793C21.3672-12.5586 21.4062-12.373 21.3379-12.0312L21.0156-10.5469L22.5195-9.0625L23.5059-9.12109C23.7598-9.13086 23.8379-9.11133 24.0332-8.91602L24.6094-8.33984L22.168-5.89844L21.5918-6.47461C21.3965-6.66992 21.3672-6.74805 21.377-7.01172L21.4453-7.98828L19.9512-9.47266L18.4277-9.21875C18.1055-9.15039 17.959-9.17969 17.7148-9.41406L15.7129-11.416C15.459-11.6504 15.4297-11.8164 15.5859-12.1875L16.4648-14.2773C14.9023-15.7324 12.8711-16.3574 10.8398-15.7617C10.6836-15.7227 10.625-15.8496 10.752-15.957Z"/>
  </g>
  <text style="stroke:none;fill:black;font-family:sans-serif;font-size:13;font-weight:bold;" transform="matrix(1 0 0 1 1289 1953)">Exporting</text>
  <text style="stroke:none;fill:black;font-family:sans-serif;font-size:13;" transform="matrix(1 0 0 1 1289 1971)">Symbols should be outlined when exporting to ensure the</text>
  <text style="stroke:none;fill:black;font-family:sans-serif;font-size:13;" transform="matrix(1 0 0 1 1289 1989)">design is preserved when submitting to Xcode.</text>
  <text id="template-version" style="stroke:none;fill:black;font-family:sans-serif;font-size:13;text-anchor:end;" transform="matrix(1 0 0 1 3036 1933)">Template v.4.0</text>
  <text style="stroke:none;fill:black;font-family:sans-serif;font-size:13;text-anchor:end;" transform="matrix(1 0 0 1 3036 1951)">Requires Xcode 14 or greater</text>
  <text id="descriptive-name" style="stroke:none;fill:black;font-family:sans-serif;font-size:13;text-anchor:end;" transform="matrix(1 0 0 1 3036 1969)">Generated from animorient</text>
  <text style="stroke:none;fill:black;font-family:sans-serif;font-size:13;text-anchor:end;" transform="matrix(1 0 0 1 3036 1987)">Typeset at 100 points</text>
  <text style="stroke:none;fill:black;font-family:sans-serif;font-size:13;" transform="matrix(1 0 0 1 263 726)">Small</text>
  <text style="stroke:none;fill:black;font-family:sans-serif;font-size:13;" transform="matrix(1 0 0 1 263 1156)">Medium</text>
  <text style="stroke:none;fill:black;font-family:sans-serif;font-size:13;" transform="matrix(1 0 0 1 263 1586)">Large</text>
 </g>
 <g id="Guides">
  <g id="H-reference" style="fill:#27AAE1;stroke:none;" transform="matrix(1 0 0 1 339 696)">
   <path d="M0.993654 0L3.63775 0L29.3281-67.1323L30.0303-67.1323L30.0303-70.459L28.1226-70.459ZM11.6885-24.4799L46.9815-24.4799L46.2315-26.7285L12.4385-26.7285ZM55.1196 0L57.7637 0L30.6382-70.459L29.4326-70.459L29.4326-67.1323Z"/>
  </g>
  <line id="Baseline-S" style="fill:none;stroke:#27AAE1;opacity:1;stroke-width:0.5;" x1="263" x2="3036" y1="696" y2="696"/>
  <line id="Capline-S" style="fill:none;stroke:#27AAE1;opacity:1;stroke-width:0.5;" x1="263" x2="3036" y1="625.541" y2="625.541"/>
  <g id="H-reference" style="fill:#27AAE1;stroke:none;" transform="matrix(1 0 0 1 339 1126)">
   <path d="M0.993654 0L3.63775 0L29.3281-67.1323L30.0303-67.1323L30.0303-70.459L28.1226-70.459ZM11.6885-24.4799L46.9815-24.4799L46.2315-26.7285L12.4385-26.7285ZM55.1196 0L57.7637 0L30.6382-70.459L29.4326-70.459L29.4326-67.1323Z"/>
  </g>
  <line id="Baseline-M" style="fill:none;stroke:#27AAE1;opacity:1;stroke-width:0.5;" x1="263" x2="3036" y1="1126" y2="1126"/>
  <line id="Capline-M" style="fill:none;stroke:#27AAE1;opacity:1;stroke-width:0.5;" x1="263" x2="3036" y1="1055.54" y2="1055.54"/>
  <g id="H-reference" style="fill:#27AAE1;stroke:none;" transform="matrix(1 0 0 1 339 1556)">
   <path d="M0.993654 0L3.63775 0L29.3281-67.1323L30.0303-67.1323L30.0303-70.459L28.1226-70.459ZM11.6885-24.4799L46.9815-24.4799L46.2315-26.7285L12.4385-26.7285ZM55.1196 0L57.7637 0L30.6382-70.459L29.4326-70.459L29.4326-67.1323Z"/>
  </g>
  <line id="Baseline-L" style="fill:none;stroke:#27AAE1;opacity:1;stroke-width:0.5;" x1="263" x2="3036" y1="1556" y2="1556"/>
  <line id="Capline-L" style="fill:none;stroke:#27AAE1;opacity:1;stroke-width:0.5;" x1="263" x2="3036" y1="1485.54" y2="1485.54"/>
  <line id="left-margin-Ultralight-S" style="fill:none;stroke:#FF3B30;stroke-width:0.5;opacity:1.0;" x1="519.324" x2="519.324" y1="600.784" y2="720.121"/>
  <line id="right-margin-Ultralight-S" style="fill:none;stroke:#FF3B30;stroke-width:0.5;opacity:1.0;" x1="600.098" x2="600.098" y1="600.784" y2="720.121"/>
  <line id="left-margin-Regular-S" style="fill:none;stroke:#FF3B30;stroke-width:0.5;opacity:1.0;" x1="1407.25" x2="1407.25" y1="600.784" y2="720.121"/>
  <line id="right-margin-Regular-S" style="fill:none;stroke:#FF3B30;stroke-width:0.5;opacity:1.0;" x1="1492.43" x2="1492.43" y1="600.784" y2="720.121"/>
  <line id="left-margin-Black-S" style="fill:none;stroke:#FF3B30;stroke-width:0.5;opacity:1.0;" x1="2888.25" x2="2888.25" y1="600.784" y2="720.121"/>
  <line id="right-margin-Black-S" style="fill:none;stroke:#FF3B30;stroke-width:0.5;opacity:1.0;" x1="2978.55" x2="2978.55" y1="600.784" y2="720.121"/>
 </g>
 <g id="Symbols">
  <g id="Black-S" transform="matrix(1 0 0 1 2888.25 696)">
   <path class="monochrome-0 SFSymbolsPreview000000" d="M55.7769-74.1941C68.0459-81.2777 84.1718-76.9803 91.2715-64.6833C98.3712-52.3863 94.0578-36.2884 81.7886-29.2048C77.5018-26.7298 72.7463-25.6379 68.069-25.7865C65.8796-21.9624 62.7069-18.6567 58.6708-16.3264C54.2021-13.7464 49.2294-12.6773 44.3684-12.9517C42.1781-9.2741 39.0674-6.09627 35.1487-3.83384C22.8796 3.24973 6.75379-1.04759-0.345895-13.3446C-7.44558-25.6416-3.13217-41.7396 9.13698-48.8232C13.6043-51.4024 18.5806-52.4796 23.4469-52.2161C25.6322-55.9043 28.7435-59.0923 32.6708-61.3597C36.9588-63.8354 41.709-64.9233 46.3781-64.7701C48.5756-68.5769 51.7496-71.8689 55.7769-74.1941ZM21.2235-47.4249L21.0095-47.4144C17.7997-47.2335 14.5756-46.3119 11.584-44.5847C1.46201-38.7408-1.91173-25.9738 3.94832-15.8239C9.80837-5.67398 22.5796-2.22831 32.7017-8.07226C35.3009-9.5729 37.4593-11.5286 39.134-13.7783C32.6134-15.4855 26.7404-19.6637 23.16-25.8651C19.2717-32.5999 18.8126-40.4967 21.2235-47.4249ZM44.1815-59.8782L43.9711-59.8614C40.9651-59.6008 37.9574-58.6864 35.15-57.0655C25.0001-51.2055 21.5545-38.4342 27.3984-28.3121C33.2585-18.1622 46.0577-14.7327 56.2076-20.5927C58.879-22.135 61.0838-24.16 62.7756-26.4918C56.0295-28.0898 49.9178-32.31 46.2382-38.6833C42.4127-45.3092 41.9089-53.0432 44.1815-59.8782ZM84.2084-61.3663C78.9694-70.0842 67.8634-72.9984 59.0411-67.9049L59.0168-67.8908L61.7707-63.1202L62.058-63.282C68.29-66.6921 76.0359-64.5275 79.6191-58.3232L84.3813-61.0727ZM10.8752-19.8242C14.4583-13.6199 22.2042-11.4553 28.4362-14.8654L28.7235-15.0272L31.4774-10.2566L31.4531-10.2425C22.6308-5.14899 11.5248-8.06324 6.28583-16.7811L6.11288-17.0747L10.8752-19.8242ZM36.392-54.9144L39.1415-50.1521C32.9372-46.569 30.7725-38.8231 34.1826-32.5911L34.3444-32.3038L29.5738-29.5499L29.5598-29.5742C24.4662-38.3965 27.3805-49.5025 36.0983-54.7415L36.392-54.9144Z"/>
  </g>
  <g id="Regular-S" transform="matrix(1 0 0 1 1407.25 696)">
   <path class="monochrome-0 SFSymbolsPreview000000" d="M51.7669-74.1941C64.0359-81.2777 80.1618-76.9803 87.2615-64.6833C94.3612-52.3863 90.0478-36.2884 77.7786-29.2048C73.4918-26.7298 68.7363-25.6379 64.059-25.7865C61.8696-21.9624 58.6969-18.6567 54.6608-16.3264C50.1921-13.7464 45.2194-12.6773 40.3584-12.9517C38.1681-9.2741 35.0574-6.09627 31.1387-3.83384C18.8696 3.24973 2.74379-1.04759-4.35589-13.3446C-11.4556-25.6416-7.14217-41.7396 5.12698-48.8232C9.59428-51.4024 14.5706-52.4796 19.4369-52.2161C21.6222-55.9043 24.7335-59.0923 28.6608-61.3597C32.9488-63.8354 37.699-64.9233 42.3681-64.7701C44.5656-68.5769 47.7396-71.8689 51.7669-74.1941ZM17.2135-47.4249L16.9995-47.4144C13.7897-47.2335 10.5656-46.3119 7.57404-44.5847C-2.54799-38.7408-5.92173-25.9738-0.0616811-15.8239C5.79837-5.67398 18.5696-2.22831 28.6917-8.07226C31.2909-9.5729 33.4493-11.5286 35.124-13.7783C28.6034-15.4855 22.7304-19.6637 19.15-25.8651C15.2617-32.5999 14.8026-40.4967 17.2135-47.4249ZM40.1715-59.8782L39.9611-59.8614C36.9551-59.6008 33.9474-58.6864 31.14-57.0655C20.9901-51.2055 17.5445-38.4342 23.3884-28.3121C29.2485-18.1622 42.0477-14.7327 52.1976-20.5927C54.869-22.135 57.0738-24.16 58.7656-26.4918C52.0195-28.0898 45.9078-32.31 42.2282-38.6833C38.4027-45.3092 37.8989-53.0432 40.1715-59.8782ZM80.1984-61.3663C74.9594-70.0842 63.8534-72.9984 55.0311-67.9049L55.0068-67.8908L57.7607-63.1202L58.048-63.282C64.28-66.6921 72.0259-64.5275 75.6091-58.3232L80.3713-61.0727ZM6.86516-19.8242C10.4483-13.6199 18.1942-11.4553 24.4262-14.8654L24.7135-15.0272L27.4674-10.2566L27.4431-10.2425C18.6208-5.14899 7.51479-8.06324 2.27583-16.7811L2.10288-17.0747L6.86516-19.8242ZM32.382-54.9144L35.1315-50.1521C28.9272-46.569 26.7625-38.8231 30.1726-32.5911L30.3344-32.3038L25.5638-29.5499L25.5498-29.5742C20.4562-38.3965 23.3705-49.5025 32.0883-54.7415L32.382-54.9144Z"/>
  </g>
  <g id="Ultralight-S" transform="matrix(1 0 0 1 519.324 696)">
   <path class="monochrome-0 SFSymbolsPreview000000" d="M50.6979-74.1941C62.9669-81.2777 79.0928-76.9803 86.1925-64.6833C93.2922-52.3863 88.9788-36.2884 76.7096-29.2048C72.4228-26.7298 67.6673-25.6379 62.99-25.7865C60.8006-21.9624 57.6279-18.6567 53.5918-16.3264C49.1231-13.7464 44.1504-12.6773 39.2894-12.9517C37.0991-9.2741 33.9884-6.09627 30.0697-3.83384C17.8006 3.24973 1.67479-1.04759-5.42489-13.3446C-12.5246-25.6416-8.21117-41.7396 4.05798-48.8232C8.52528-51.4024 13.5016-52.4796 18.3679-52.2161C20.5532-55.9043 23.6645-59.0923 27.5918-61.3597C31.8798-63.8354 36.63-64.9233 41.2991-64.7701C43.4966-68.5769 46.6706-71.8689 50.6979-74.1941ZM16.1445-47.4249L15.9305-47.4144C12.7207-47.2335 9.49659-46.3119 6.50504-44.5847C-3.61699-38.7408-6.99073-25.9738-1.13068-15.8239C4.72937-5.67398 17.5006-2.22831 27.6227-8.07226C30.2219-9.5729 32.3803-11.5286 34.055-13.7783C27.5344-15.4855 21.6614-19.6637 18.081-25.8651C14.1927-32.5999 13.7336-40.4967 16.1445-47.4249ZM39.1025-59.8782L38.8921-59.8614C35.8861-59.6008 32.8784-58.6864 30.071-57.0655C19.9211-51.2055 16.4755-38.4342 22.3194-28.3121C28.1795-18.1622 40.9787-14.7327 51.1286-20.5927C53.8-22.135 56.0048-24.16 57.6966-26.4918C50.9505-28.0898 44.8388-32.31 41.1592-38.6833C37.3337-45.3092 36.8299-53.0432 39.1025-59.8782ZM79.1294-61.3663C73.8904-70.0842 62.7844-72.9984 53.9621-67.9049L53.9378-67.8908L56.6917-63.1202L56.979-63.282C63.211-66.6921 70.9569-64.5275 74.5401-58.3232L79.3023-61.0727ZM5.79616-19.8242C9.37935-13.6199 17.1252-11.4553 23.3572-14.8654L23.6445-15.0272L26.3984-10.2566L26.3741-10.2425C17.5518-5.14899 6.44579-8.06324 1.20683-16.7811L1.03388-17.0747L5.79616-19.8242ZM31.313-54.9144L34.0625-50.1521C27.8582-46.569 25.6935-38.8231 29.1036-32.5911L29.2654-32.3038L24.4948-29.5499L24.4808-29.5742C19.3872-38.3965 22.3015-49.5025 31.0193-54.7415L31.313-54.9144Z"/>
  </g>
 </g>
</svg>
