<?xml version="1.0" encoding="UTF-8"?>
<!--Generator: Apple Native CoreSVG 175.5-->
<!DOCTYPE svg
PUBLIC "-//W3C//DTD SVG 1.1//EN"
       "http://www.w3.org/Graphics/SVG/1.1/DTD/svg11.dtd">
<svg version="1.1" xmlns="http://www.w3.org/2000/svg" xmlns:xlink="http://www.w3.org/1999/xlink" width="3300" height="2200">
 <!--glyph: "", point size: 100.0, font version: "18.0d12e2", template writer version: "101"-->
 <style>.monochrome-0 {fill:#000000}

.SFSymbolsPreview000000 {fill:#000000;opacity:1.0}
</style>
 <g id="Notes">
  <rect height="2200" id="artboard" style="fill:white;opacity:1" width="3300" x="0" y="0"/>
  <line style="fill:none;stroke:black;opacity:1;stroke-width:0.5;" x1="263" x2="3036" y1="292" y2="292"/>
  <text style="stroke:none;fill:black;font-family:sans-serif;font-size:13;font-weight:bold;" transform="matrix(1 0 0 1 263 322)">Weight/Scale Variations</text>
  <text style="stroke:none;fill:black;font-family:sans-serif;font-size:13;text-anchor:middle;" transform="matrix(1 0 0 1 559.711 322)">Ultralight</text>
  <text style="stroke:none;fill:black;font-family:sans-serif;font-size:13;text-anchor:middle;" transform="matrix(1 0 0 1 856.422 322)">Thin</text>
  <text style="stroke:none;fill:black;font-family:sans-serif;font-size:13;text-anchor:middle;" transform="matrix(1 0 0 1 1153.13 322)">Light</text>
  <text style="stroke:none;fill:black;font-family:sans-serif;font-size:13;text-anchor:middle;" transform="matrix(1 0 0 1 1449.84 322)">Regular</text>
  <text style="stroke:none;fill:black;font-family:sans-serif;font-size:13;text-anchor:middle;" transform="matrix(1 0 0 1 1746.56 322)">Medium</text>
  <text style="stroke:none;fill:black;font-family:sans-serif;font-size:13;text-anchor:middle;" transform="matrix(1 0 0 1 2043.27 322)">Semibold</text>
  <text style="stroke:none;fill:black;font-family:sans-serif;font-size:13;text-anchor:middle;" transform="matrix(1 0 0 1 2339.98 322)">Bold</text>
  <text style="stroke:none;fill:black;font-family:sans-serif;font-size:13;text-anchor:middle;" transform="matrix(1 0 0 1 2636.69 322)">Heavy</text>
  <text style="stroke:none;fill:black;font-family:sans-serif;font-size:13;text-anchor:middle;" transform="matrix(1 0 0 1 2933.4 322)">Black</text>
  <line style="fill:none;stroke:black;opacity:1;stroke-width:0.5;" x1="263" x2="3036" y1="1903" y2="1903"/>
  <g transform="matrix(1 0 0 1 263 1933)">
   <path d="M9.24805 0.830078C13.5547 0.830078 17.1387-2.74414 17.1387-7.05078C17.1387-11.3574 13.5449-14.9316 9.23828-14.9316C4.94141-14.9316 1.36719-11.3574 1.36719-7.05078C1.36719-2.74414 4.95117 0.830078 9.24805 0.830078ZM9.24805-0.654297C5.70312-0.654297 2.87109-3.49609 2.87109-7.05078C2.87109-10.6055 5.69336-13.4473 9.23828-13.4473C12.793-13.4473 15.6445-10.6055 15.6445-7.05078C15.6445-3.49609 12.8027-0.654297 9.24805-0.654297ZM5.6543-7.05078C5.6543-6.62109 5.95703-6.32812 6.40625-6.32812L8.50586-6.32812L8.50586-4.20898C8.50586-3.76953 8.79883-3.4668 9.22852-3.4668C9.67773-3.4668 9.9707-3.76953 9.9707-4.20898L9.9707-6.32812L12.0898-6.32812C12.5293-6.32812 12.832-6.62109 12.832-7.05078C12.832-7.49023 12.5293-7.79297 12.0898-7.79297L9.9707-7.79297L9.9707-9.90234C9.9707-10.3516 9.67773-10.6543 9.22852-10.6543C8.79883-10.6543 8.50586-10.3516 8.50586-9.90234L8.50586-7.79297L6.40625-7.79297C5.95703-7.79297 5.6543-7.49023 5.6543-7.05078Z"/>
  </g>
  <g transform="matrix(1 0 0 1 281.867 1933)">
   <path d="M11.709 2.91016C17.1582 2.91016 21.6699-1.61133 21.6699-7.05078C21.6699-12.5 17.1484-17.0117 11.6992-17.0117C6.25977-17.0117 1.74805-12.5 1.74805-7.05078C1.74805-1.61133 6.26953 2.91016 11.709 2.91016ZM11.709 1.25C7.09961 1.25 3.41797-2.44141 3.41797-7.05078C3.41797-11.6602 7.08984-15.3516 11.6992-15.3516C16.3086-15.3516 20.0098-11.6602 20.0098-7.05078C20.0098-2.44141 16.3184 1.25 11.709 1.25ZM7.17773-7.05078C7.17773-6.57227 7.50977-6.25 8.00781-6.25L10.8789-6.25L10.8789-3.36914C10.8789-2.88086 11.2109-2.53906 11.6895-2.53906C12.1777-2.53906 12.5195-2.87109 12.5195-3.36914L12.5195-6.25L15.4004-6.25C15.8887-6.25 16.2305-6.57227 16.2305-7.05078C16.2305-7.53906 15.8887-7.88086 15.4004-7.88086L12.5195-7.88086L12.5195-10.752C12.5195-11.25 12.1777-11.5918 11.6895-11.5918C11.2109-11.5918 10.8789-11.25 10.8789-10.752L10.8789-7.88086L8.00781-7.88086C7.50977-7.88086 7.17773-7.53906 7.17773-7.05078Z"/>
  </g>
  <g transform="matrix(1 0 0 1 305.646 1933)">
   <path d="M14.9707 5.66406C21.9336 5.66406 27.6953-0.0976562 27.6953-7.05078C27.6953-14.0137 21.9238-19.7754 14.9609-19.7754C8.00781-19.7754 2.25586-14.0137 2.25586-7.05078C2.25586-0.0976562 8.01758 5.66406 14.9707 5.66406ZM14.9707 3.84766C8.93555 3.84766 4.08203-1.01562 4.08203-7.05078C4.08203-13.0957 8.92578-17.9492 14.9609-17.9492C21.0059-17.9492 25.8691-13.0957 25.8691-7.05078C25.8691-1.01562 21.0156 3.84766 14.9707 3.84766ZM9.19922-7.05078C9.19922-6.5332 9.57031-6.17188 10.1172-6.17188L14.0625-6.17188L14.0625-2.2168C14.0625-1.67969 14.4336-1.29883 14.9512-1.29883C15.4883-1.29883 15.8594-1.66992 15.8594-2.2168L15.8594-6.17188L19.8145-6.17188C20.3516-6.17188 20.7324-6.5332 20.7324-7.05078C20.7324-7.59766 20.3613-7.96875 19.8145-7.96875L15.8594-7.96875L15.8594-11.9141C15.8594-12.4609 15.4883-12.8418 14.9512-12.8418C14.4336-12.8418 14.0625-12.4609 14.0625-11.9141L14.0625-7.96875L10.1172-7.96875C9.57031-7.96875 9.19922-7.59766 9.19922-7.05078Z"/>
  </g>
  <text style="stroke:none;fill:black;font-family:sans-serif;font-size:13;font-weight:bold;" transform="matrix(1 0 0 1 263 1953)">Design Variations</text>
  <text style="stroke:none;fill:black;font-family:sans-serif;font-size:13;" transform="matrix(1 0 0 1 263 1971)">Symbols are supported in up to nine weights and three scales.</text>
  <text style="stroke:none;fill:black;font-family:sans-serif;font-size:13;" transform="matrix(1 0 0 1 263 1989)">For optimal layout with text and other symbols, vertically align</text>
  <text style="stroke:none;fill:black;font-family:sans-serif;font-size:13;" transform="matrix(1 0 0 1 263 2007)">symbols with the adjacent text.</text>
  <line style="fill:none;stroke:#00AEEF;stroke-width:0.5;opacity:1.0;" x1="776" x2="776" y1="1919" y2="1933"/>
  <g transform="matrix(1 0 0 1 776 1933)">
   <path d="M3.31055 0.15625C3.82812 0.15625 4.08203-0.0390625 4.26758-0.585938L5.52734-4.0332L11.2891-4.0332L12.5488-0.585938C12.7344-0.0390625 12.9883 0.15625 13.4961 0.15625C14.0137 0.15625 14.3457-0.15625 14.3457-0.644531C14.3457-0.810547 14.3164-0.966797 14.2383-1.17188L9.6582-13.3691C9.43359-13.9648 9.0332-14.2676 8.4082-14.2676C7.80273-14.2676 7.39258-13.9746 7.17773-13.3789L2.59766-1.16211C2.51953-0.957031 2.49023-0.800781 2.49023-0.634766C2.49023-0.146484 2.80273 0.15625 3.31055 0.15625ZM6.00586-5.51758L8.37891-12.0898L8.42773-12.0898L10.8008-5.51758Z"/>
  </g>
  <line style="fill:none;stroke:#00AEEF;stroke-width:0.5;opacity:1.0;" x1="793.197" x2="793.197" y1="1919" y2="1933"/>
  <text style="stroke:none;fill:black;font-family:sans-serif;font-size:13;font-weight:bold;" transform="matrix(1 0 0 1 776 1953)">Margins</text>
  <text style="stroke:none;fill:black;font-family:sans-serif;font-size:13;" transform="matrix(1 0 0 1 776 1971)">Leading and trailing margins on the left and right side of each symbol</text>
  <text style="stroke:none;fill:black;font-family:sans-serif;font-size:13;" transform="matrix(1 0 0 1 776 1989)">can be adjusted by modifying the x-location of the margin guidelines.</text>
  <text style="stroke:none;fill:black;font-family:sans-serif;font-size:13;" transform="matrix(1 0 0 1 776 2007)">Modifications are automatically applied proportionally to all</text>
  <text style="stroke:none;fill:black;font-family:sans-serif;font-size:13;" transform="matrix(1 0 0 1 776 2025)">scales and weights.</text>
  <g transform="matrix(1 0 0 1 1289 1933)">
   <path d="M2.8418 1.86523L4.54102 3.57422C5.40039 4.44336 6.38672 4.38477 7.31445 3.35938L18.0078-8.42773L17.041-9.4043L6.42578 2.27539C6.07422 2.67578 5.74219 2.77344 5.27344 2.30469L4.10156 1.14258C3.63281 0.683594 3.74023 0.341797 4.14062-0.0195312L15.6152-10.8203L14.6387-11.7871L3.04688-0.898438C2.06055 0.0195312 1.98242 0.996094 2.8418 1.86523ZM9.25781-16.3281C8.83789-15.918 8.80859-15.3418 9.04297-14.9512C9.27734-14.5898 9.73633-14.3555 10.3809-14.5215C11.8457-14.8633 13.3691-14.9219 14.7949-13.9844L14.209-12.5293C13.8672-11.6992 14.043-11.1133 14.5801-10.5664L16.875-8.25195C17.3633-7.76367 17.7734-7.74414 18.3398-7.8418L19.4043-8.03711L20.0684-7.36328L20.0293-6.80664C19.9902-6.30859 20.1172-5.92773 20.6055-5.44922L21.3672-4.70703C21.8457-4.22852 22.4609-4.19922 22.9297-4.66797L25.8398-7.58789C26.3086-8.05664 26.2891-8.65234 25.8105-9.13086L25.0391-9.89258C24.5605-10.3711 24.1895-10.5273 23.7109-10.4883L23.1348-10.4395L22.4902-11.0742L22.7344-12.1973C22.8613-12.7637 22.7051-13.2031 22.1191-13.7891L19.9219-15.9766C16.582-19.2969 12.1484-19.2188 9.25781-16.3281ZM10.752-15.957C13.1836-17.7344 16.4746-17.4316 18.7012-15.2051L21.1328-12.793C21.3672-12.5586 21.4062-12.373 21.3379-12.0312L21.0156-10.5469L22.5195-9.0625L23.5059-9.12109C23.7598-9.13086 23.8379-9.11133 24.0332-8.91602L24.6094-8.33984L22.168-5.89844L21.5918-6.47461C21.3965-6.66992 21.3672-6.74805 21.377-7.01172L21.4453-7.98828L19.9512-9.47266L18.4277-9.21875C18.1055-9.15039 17.959-9.17969 17.7148-9.41406L15.7129-11.416C15.459-11.6504 15.4297-11.8164 15.5859-12.1875L16.4648-14.2773C14.9023-15.7324 12.8711-16.3574 10.8398-15.7617C10.6836-15.7227 10.625-15.8496 10.752-15.957Z"/>
  </g>
  <text style="stroke:none;fill:black;font-family:sans-serif;font-size:13;font-weight:bold;" transform="matrix(1 0 0 1 1289 1953)">Exporting</text>
  <text style="stroke:none;fill:black;font-family:sans-serif;font-size:13;" transform="matrix(1 0 0 1 1289 1971)">Symbols should be outlined when exporting to ensure the</text>
  <text style="stroke:none;fill:black;font-family:sans-serif;font-size:13;" transform="matrix(1 0 0 1 1289 1989)">design is preserved when submitting to Xcode.</text>
  <text id="template-version" style="stroke:none;fill:black;font-family:sans-serif;font-size:13;text-anchor:end;" transform="matrix(1 0 0 1 3036 1933)">Template v.4.0</text>
  <text style="stroke:none;fill:black;font-family:sans-serif;font-size:13;text-anchor:end;" transform="matrix(1 0 0 1 3036 1951)">Requires Xcode 14 or greater</text>
  <text id="descriptive-name" style="stroke:none;fill:black;font-family:sans-serif;font-size:13;text-anchor:end;" transform="matrix(1 0 0 1 3036 1969)">Generated from monkey</text>
  <text style="stroke:none;fill:black;font-family:sans-serif;font-size:13;text-anchor:end;" transform="matrix(1 0 0 1 3036 1987)">Typeset at 100 points</text>
  <text style="stroke:none;fill:black;font-family:sans-serif;font-size:13;" transform="matrix(1 0 0 1 263 726)">Small</text>
  <text style="stroke:none;fill:black;font-family:sans-serif;font-size:13;" transform="matrix(1 0 0 1 263 1156)">Medium</text>
  <text style="stroke:none;fill:black;font-family:sans-serif;font-size:13;" transform="matrix(1 0 0 1 263 1586)">Large</text>
 </g>
 <g id="Guides">
  <g id="H-reference" style="fill:#27AAE1;stroke:none;" transform="matrix(1 0 0 1 339 696)">
   <path d="M0.993654 0L3.63775 0L29.3281-67.1323L30.0303-67.1323L30.0303-70.459L28.1226-70.459ZM11.6885-24.4799L46.9815-24.4799L46.2315-26.7285L12.4385-26.7285ZM55.1196 0L57.7637 0L30.6382-70.459L29.4326-70.459L29.4326-67.1323Z"/>
  </g>
  <line id="Baseline-S" style="fill:none;stroke:#27AAE1;opacity:1;stroke-width:0.5;" x1="263" x2="3036" y1="696" y2="696"/>
  <line id="Capline-S" style="fill:none;stroke:#27AAE1;opacity:1;stroke-width:0.5;" x1="263" x2="3036" y1="625.541" y2="625.541"/>
  <g id="H-reference" style="fill:#27AAE1;stroke:none;" transform="matrix(1 0 0 1 339 1126)">
   <path d="M0.993654 0L3.63775 0L29.3281-67.1323L30.0303-67.1323L30.0303-70.459L28.1226-70.459ZM11.6885-24.4799L46.9815-24.4799L46.2315-26.7285L12.4385-26.7285ZM55.1196 0L57.7637 0L30.6382-70.459L29.4326-70.459L29.4326-67.1323Z"/>
  </g>
  <line id="Baseline-M" style="fill:none;stroke:#27AAE1;opacity:1;stroke-width:0.5;" x1="263" x2="3036" y1="1126" y2="1126"/>
  <line id="Capline-M" style="fill:none;stroke:#27AAE1;opacity:1;stroke-width:0.5;" x1="263" x2="3036" y1="1055.54" y2="1055.54"/>
  <g id="H-reference" style="fill:#27AAE1;stroke:none;" transform="matrix(1 0 0 1 339 1556)">
   <path d="M0.993654 0L3.63775 0L29.3281-67.1323L30.0303-67.1323L30.0303-70.459L28.1226-70.459ZM11.6885-24.4799L46.9815-24.4799L46.2315-26.7285L12.4385-26.7285ZM55.1196 0L57.7637 0L30.6382-70.459L29.4326-70.459L29.4326-67.1323Z"/>
  </g>
  <line id="Baseline-L" style="fill:none;stroke:#27AAE1;opacity:1;stroke-width:0.5;" x1="263" x2="3036" y1="1556" y2="1556"/>
  <line id="Capline-L" style="fill:none;stroke:#27AAE1;opacity:1;stroke-width:0.5;" x1="263" x2="3036" y1="1485.54" y2="1485.54"/>
  <line id="left-margin-Ultralight-S" style="fill:none;stroke:#00AEEF;stroke-width:0.5;opacity:1.0;" x1="515.649" x2="515.649" y1="600.785" y2="720.121"/>
  <line id="right-margin-Ultralight-S" style="fill:none;stroke:#00AEEF;stroke-width:0.5;opacity:1.0;" x1="603.773" x2="603.773" y1="600.785" y2="720.121"/>
  <line id="left-margin-Regular-S" style="fill:none;stroke:#00AEEF;stroke-width:0.5;opacity:1.0;" x1="1403.58" x2="1403.58" y1="600.785" y2="720.121"/>
  <line id="right-margin-Regular-S" style="fill:none;stroke:#00AEEF;stroke-width:0.5;opacity:1.0;" x1="1496.11" x2="1496.11" y1="600.785" y2="720.121"/>
  <line id="left-margin-Black-S" style="fill:none;stroke:#00AEEF;stroke-width:0.5;opacity:1.0;" x1="2884.57" x2="2884.57" y1="600.785" y2="720.121"/>
  <line id="right-margin-Black-S" style="fill:none;stroke:#00AEEF;stroke-width:0.5;opacity:1.0;" x1="2982.23" x2="2982.23" y1="600.785" y2="720.121"/>
 </g>
 <g id="Symbols">
  <g id="Black-S" transform="matrix(1 0 0 1 2884.57 696)">
   <path class="monochrome-0 SFSymbolsPreview000000" d="M73.0008-73.9999C69.2253-73.9785 65.5514-72.7724 62.4944-70.5511C58.1513-72.8163 53.3276-73.9991 48.4318-73.9999C43.5355-73.9999 38.7117-72.8177 34.3686-70.5525C31.3102-72.773 27.6349-73.9785 23.8587-73.9999C17.9655-74.0177 12.4219-71.2013 8.9521-66.4262C5.48232-61.6517 4.50825-55.4981 6.33318-49.8811C8.15758-44.2633 12.559-39.8648 18.1684-38.0532C19.1707-32.0245 21.9576-26.4365 26.1662-22.0146C25.9935-20.8772 25.9064-19.7288 25.9064-18.579C25.9064-10.5119 30.1988-3.05858 37.1677 0.974817C44.1366 5.00839 52.7227 5.00839 59.6923 0.974817C66.6612-3.05876 70.9536-10.5121 70.9536-18.579C70.9536-19.7288 70.8665-20.8772 70.6938-22.0146C74.9024-26.4365 77.6886-32.024 78.6917-38.0525C84.3011-39.8641 88.7024-44.2633 90.5268-49.8804C92.3518-55.4974 91.3776-61.651 87.9079-66.4262C84.4381-71.2013 78.8947-74.0176 73.0013-73.9999L73.0008-73.9999ZM62.9762-25.2166L62.9767-25.2161C62.5758-24.8275 62.4019-24.2637 62.5149-23.7193C62.7137-22.7433 62.8145-21.7504 62.815-20.7547C62.815-15.483 59.9782-10.6127 55.3727-7.97687C50.7672-5.34104 45.0934-5.34104 40.4879-7.97687C35.8824-10.6127 33.0455-15.483 33.0455-20.7547C33.046-21.7503 33.1468-22.7433 33.3456-23.7193C33.4586-24.2638 33.2847-24.8275 32.8838-25.2161C28.8631-29.1099 26.5467-34.4139 26.4343-39.9844C26.3219-45.5552 28.4222-50.947 32.2824-54.9973C43.3873-54.9369 46.3377-49.7388 46.4506-49.5309C46.7308-48.9842 47.2957-48.6384 47.9142-48.6345L47.9352-48.6345C48.5493-48.6378 49.1119-48.9754 49.3999-49.5133C49.5222-49.7406 52.394-55.0577 63.5758-55L63.5758-54.999C67.4371-50.9493 69.5381-45.5575 69.4257-39.9861C69.3133-34.4149 66.9969-29.1104 62.9762-25.2164L62.9762-25.2166ZM78.7747-45C78.7781-45.1699 78.7986-45.336 78.7986-45.5065L78.7992-45.5065C78.7958-49.4386 77.8539-53.3137 76.0506-56.8102C74.2474-60.3072 71.6354-63.3259 68.43-65.6155C70.084-66.5211 71.9394-66.9978 73.8261-67C77.3655-67.0077 80.7141-65.4007 82.9164-62.6366C85.1182-59.8726 85.932-56.2561 85.1249-52.8189C84.3179-49.3817 81.9789-46.5014 78.7753-45L78.7747-45ZM11.43-55.4265C11.434-58.4945 12.6577-61.4363 14.8326-63.6065C17.0076-65.7761 19.9566-66.9967 23.0329-67C24.9198-66.9978 26.7757-66.5222 28.43-65.6166C25.225-63.3269 22.6123-60.3081 20.8091-56.811C19.0059-53.3139 18.0637-49.4387 18.0603-45.506C18.0603-45.336 18.0808-45.17 18.0841-45C16.1006-45.9328 14.4229-47.4075 13.2453-49.2528C12.0676-51.0984 11.4382-53.2386 11.43-55.4264L11.43-55.4265ZM60.43-64.6519C55.9488-64.4332 51.697-62.7858 48.4275-60C45.1615-62.7879 40.9106-64.4372 36.43-64.6549C39.9694-66.8356 44.1507-68.001 48.4308-68C52.7103-67.9995 56.8911-66.833 60.43-64.6519ZM64.43-38.9996C64.43-37.6737 63.9027-36.4023 62.9652-35.4648C62.0277-34.5265 60.7562-34 59.4296-34C58.1037-34 56.8323-34.5265 55.8948-35.4648C54.9565-36.4023 54.43-37.6738 54.43-38.9996C54.43-40.3263 54.9565-41.5977 55.8948-42.5352C56.8323-43.4727 58.1038-44 59.4296-44C60.7563-44 62.0277-43.4727 62.9652-42.5352C63.9027-41.5977 64.43-40.3262 64.43-38.9996ZM40.43-38.9996C40.43-37.6737 39.9035-36.4023 38.9652-35.4648C38.0277-34.5265 36.7562-34 35.4304-34C34.1037-34 32.8323-34.5265 31.8948-35.4648C30.9573-36.4023 30.43-37.6738 30.43-38.9996C30.43-40.3263 30.9573-41.5977 31.8948-42.5352C32.8323-43.4727 34.1038-44 35.4304-44C36.7563-44 38.0277-43.4727 38.9652-42.5352C39.9035-41.5977 40.43-40.3262 40.43-38.9996Z"/>
  </g>
  <g id="Regular-S" transform="matrix(1 0 0 1 1403.58 696)">
   <path class="monochrome-0 SFSymbolsPreview000000" d="M70.9908-73.9999C67.2153-73.9785 63.5414-72.7724 60.4844-70.5511C56.1413-72.8163 51.3176-73.9991 46.4218-73.9999C41.5255-73.9999 36.7017-72.8177 32.3586-70.5525C29.3002-72.773 25.6249-73.9785 21.8487-73.9999C15.9555-74.0177 10.4119-71.2013 6.9421-66.4262C3.47232-61.6517 2.49825-55.4981 4.32318-49.8811C6.14758-44.2633 10.549-39.8648 16.1584-38.0532C17.1607-32.0245 19.9476-26.4365 24.1562-22.0146C23.9835-20.8772 23.8964-19.7288 23.8964-18.579C23.8964-10.5119 28.1888-3.05858 35.1577 0.974817C42.1266 5.00839 50.7127 5.00839 57.6823 0.974817C64.6512-3.05876 68.9436-10.5121 68.9436-18.579C68.9436-19.7288 68.8565-20.8772 68.6838-22.0146C72.8924-26.4365 75.6786-32.024 76.6817-38.0525C82.2911-39.8641 86.6924-44.2633 88.5168-49.8804C90.3418-55.4974 89.3676-61.651 85.8979-66.4262C82.4281-71.2013 76.8847-74.0176 70.9913-73.9999L70.9908-73.9999ZM64.0657-24.5697L64.0663-24.5691C63.6094-24.1329 63.4113-23.5001 63.54-22.889C63.7665-21.7936 63.8814-20.679 63.882-19.5613C63.882-13.6442 60.6493-8.17751 55.4012-5.21893C50.153-2.26036 43.6876-2.26036 38.4394-5.21893C33.1913-8.17751 29.9586-13.6442 29.9586-19.5613C29.9592-20.679 30.0741-21.7934 30.3006-22.889C30.4293-23.5002 30.2312-24.1329 29.7743-24.5691C25.1926-28.9397 22.553-34.8932 22.4249-41.1458C22.2968-47.3987 24.6902-53.4507 29.0891-57.9969C41.7435-57.9292 45.1055-52.0946 45.2342-51.8612C45.5535-51.2476 46.1971-50.8594 46.902-50.8551L46.9259-50.8551C47.6257-50.8588 48.2668-51.2377 48.595-51.8415C48.7344-52.0965 52.0069-58.0648 64.749-58L64.749-57.9989C69.149-53.4533 71.5432-47.4013 71.4151-41.1477C71.287-34.8943 68.6474-28.9402 64.0657-24.5694L64.0657-24.5697ZM76.9818-43C76.9855-43.1931 77.0084-43.3818 77.0084-43.5756L77.0091-43.5756C77.0053-48.0439 75.9526-52.4474 73.9371-56.4206C71.9218-60.3945 69.0025-63.8249 65.42-66.4267C67.2686-67.4558 69.3423-67.9975 71.4509-68C75.4067-68.0088 79.1493-66.1826 81.6107-63.0416C84.0716-59.9007 84.981-55.791 84.079-51.8851C83.1771-47.9792 80.5629-44.7062 76.9824-43L76.9818-43ZM7.42-54.8483C7.42451-58.3347 8.79218-61.6776 11.223-64.1437C13.6538-66.6092 16.9498-67.9963 20.388-68C22.4968-67.9975 24.5711-67.4571 26.42-66.4279C22.8379-63.8261 19.9178-60.3956 17.9025-56.4216C15.8872-52.4477 14.8341-48.044 14.8303-43.575C14.8303-43.3819 14.8532-43.1931 14.857-43C12.6401-44.06 10.765-45.7359 9.44882-47.8327C8.13262-49.93 7.42921-52.3621 7.42-54.8482L7.42-54.8483ZM59.42-65.2334C54.3786-64.9874 49.5953-63.1341 45.9172-60C42.2429-63.1364 37.4607-64.9918 32.42-65.2367C36.4019-67.69 41.1058-69.0011 45.9209-69C50.7353-68.9994 55.4388-67.6872 59.42-65.2334ZM61.42-38.4996C61.42-37.3063 60.9454-36.162 60.1017-35.3183C59.258-34.4738 58.1136-34 56.9196-34C55.7263-34 54.582-34.4738 53.7383-35.3183C52.8938-36.162 52.42-37.3064 52.42-38.4996C52.42-39.6936 52.8938-40.838 53.7383-41.6817C54.582-42.5254 55.7264-43 56.9196-43C58.1136-43 59.258-42.5254 60.1017-41.6817C60.9454-40.838 61.42-39.6936 61.42-38.4996ZM39.42-38.4996C39.42-37.3063 38.9462-36.162 38.1017-35.3183C37.258-34.4738 36.1136-34 34.9204-34C33.7264-34 32.582-34.4738 31.7383-35.3183C30.8946-36.162 30.42-37.3064 30.42-38.4996C30.42-39.6936 30.8946-40.838 31.7383-41.6817C32.582-42.5254 33.7264-43 34.9204-43C36.1137-43 37.258-42.5254 38.1017-41.6817C38.9462-40.838 39.42-39.6936 39.42-38.4996Z"/>
  </g>
  <g id="Ultralight-S" transform="matrix(1 0 0 1 515.649 696)">
   <path class="monochrome-0 SFSymbolsPreview000000" d="M68.9218-73.9999C65.1463-73.9785 61.4724-72.7724 58.4154-70.5511C54.0723-72.8163 49.2486-73.9991 44.3528-73.9999C39.4565-73.9999 34.6327-72.8177 30.2896-70.5525C27.2312-72.773 23.5559-73.9785 19.7797-73.9999C13.8865-74.0177 8.34289-71.2013 4.8731-66.4262C1.40332-61.6517 0.429249-55.4981 2.25418-49.8811C4.07858-44.2633 8.47996-39.8648 14.0894-38.0532C15.0917-32.0245 17.8786-26.4365 22.0872-22.0146C21.9145-20.8772 21.8274-19.7288 21.8274-18.579C21.8274-10.5119 26.1198-3.05858 33.0887 0.974817C40.0576 5.00839 48.6437 5.00839 55.6133 0.974817C62.5822-3.05876 66.8746-10.5121 66.8746-18.579C66.8746-19.7288 66.7875-20.8772 66.6148-22.0146C70.8234-26.4365 73.6096-32.024 74.6127-38.0525C80.2221-39.8641 84.6234-44.2633 86.4478-49.8804C88.2728-55.4974 87.2986-61.651 83.8289-66.4262C80.3591-71.2013 74.8157-74.0176 68.9223-73.9999L68.9218-73.9999ZM63.2089-24.4302L63.2096-24.4295C62.7071-23.9474 62.4892-23.248 62.6308-22.5725C62.8799-21.3616 63.0062-20.1296 63.0069-18.8943C63.0069-12.3538 59.4513-6.31117 53.6791-3.04092C47.9069 0.229332 40.7958 0.229332 35.0235-3.04092C29.2513-6.31117 25.6957-12.3538 25.6957-18.8943C25.6964-20.1296 25.8228-21.3615 26.0719-22.5725C26.2135-23.248 25.9956-23.9474 25.4931-24.4295C20.4538-29.2606 17.5506-35.8412 17.4097-42.7525C17.2688-49.6642 19.9012-56.3538 24.7394-61.3789C38.6575-61.304 42.3553-54.8548 42.4969-54.5968C42.848-53.9185 43.5559-53.4894 44.3312-53.4847L44.3575-53.4847C45.1272-53.4888 45.8323-53.9076 46.1932-54.575C46.3466-54.8569 49.9459-61.4539 63.9605-61.3823L63.9605-61.381C68.7999-56.3566 71.4332-49.667 71.2923-42.7546C71.1514-35.8425 68.2482-29.2612 63.2089-24.4299L63.2089-24.4302ZM74.6841-41.8823C74.6881-42.095 74.713-42.3028 74.713-42.5161L74.7137-42.5161C74.7097-47.4365 73.5661-52.2856 71.3766-56.6608C69.1873-61.0367 66.016-64.8141 62.1243-67.6792C64.1325-68.8125 66.3852-69.4089 68.6758-69.4117C72.9731-69.4213 77.0386-67.4104 79.7126-63.9517C82.3858-60.4929 83.3738-55.9675 82.3939-51.6664C81.4141-47.3653 78.5743-43.7611 74.6847-41.8823L74.6841-41.8823ZM4.791-54.9294C4.79589-58.7684 6.28162-62.4497 8.92221-65.1653C11.5629-67.8802 15.1433-69.4076 18.8783-69.4117C21.1692-69.4089 23.4225-68.8139 25.431-67.6805C21.5397-64.8154 18.3676-61.0379 16.1783-56.6619C13.989-52.2858 12.845-47.4366 12.8409-42.5155C12.8409-42.3028 12.8658-42.095 12.8699-41.8823C10.4617-43.0496 8.42474-44.895 6.99494-47.2039C5.56513-49.5134 4.801-52.1916 4.791-54.9292L4.791-54.9294ZM58.6843-65.0912C53.1177-64.809 47.836-62.6831 43.7746-59.0882C39.7175-62.6858 34.437-64.8141 28.871-65.095C33.2678-67.9091 38.4619-69.413 43.7786-69.4117C49.0947-69.411 54.2883-67.9058 58.6843-65.0912ZM57.5377-39.0143C57.5377-37.9497 57.1144-36.9288 56.3619-36.1761C55.6094-35.4227 54.5888-35 53.524-35C52.4598-35 51.4392-35.4227 50.6867-36.1761C49.9336-36.9288 49.511-37.9498 49.511-39.0143C49.511-40.0796 49.9336-41.1005 50.6867-41.8532C51.4392-42.606 52.4599-43.0294 53.524-43.0294C54.5889-43.0294 55.6094-42.606 56.3619-41.8532C57.1144-41.1005 57.5377-40.0795 57.5377-39.0143ZM36.8977-39.0143C36.8977-37.9497 36.4751-36.9288 35.7219-36.1761C34.9694-35.4227 33.9488-35 32.8847-35C31.8198-35 30.7992-35.4227 30.0467-36.1761C29.2943-36.9288 28.871-37.9498 28.871-39.0143C28.871-40.0796 29.2943-41.1005 30.0467-41.8532C30.7992-42.606 31.8199-43.0294 32.8847-43.0294C33.9489-43.0294 34.9694-42.606 35.7219-41.8532C36.4751-41.1005 36.8977-40.0795 36.8977-39.0143Z"/>
  </g>
 </g>
</svg>
